<svg xmlns="http://www.w3.org/2000/svg" width="131.248" height="33.362" viewBox="0 0 131.248 33.362"><defs><style>.a{fill:#fff;}</style></defs><g transform="translate(0)"><path class="a" d="M280.586,64.157a11.115,11.115,0,0,1-4.419-2.14,4.143,4.143,0,0,1-1.386-3.141,4.329,4.329,0,0,1,1.693-3.495A6.687,6.687,0,0,1,280.863,54a7.6,7.6,0,0,1,3.295.708,5.313,5.313,0,0,1,2.232,1.971,4.939,4.939,0,0,1,.785,2.74H284.8a3.252,3.252,0,0,0-1.032-2.556,4.231,4.231,0,0,0-2.91-.924,4.315,4.315,0,0,0-2.725.77,2.591,2.591,0,0,0-.985,2.14,2.275,2.275,0,0,0,.924,1.847,9.482,9.482,0,0,0,3.156,1.386,14.409,14.409,0,0,1,3.495,1.386,5.264,5.264,0,0,1,1.863,1.77,4.585,4.585,0,0,1,.616,2.371,4.178,4.178,0,0,1-1.694,3.479,7.206,7.206,0,0,1-4.542,1.309,8.338,8.338,0,0,1-3.449-.708,5.74,5.74,0,0,1-2.463-1.94,4.738,4.738,0,0,1-.862-2.787h2.371a3.057,3.057,0,0,0,1.2,2.556,5.016,5.016,0,0,0,3.2.939,4.632,4.632,0,0,0,2.864-.754,2.5,2.5,0,0,0,1-2.078,2.421,2.421,0,0,0-.924-2.032A9.877,9.877,0,0,0,280.586,64.157Z" transform="translate(-231.967 -45.683)"/><path class="a" d="M367.993,55.224a1.337,1.337,0,0,1,.339-.939,1.3,1.3,0,0,1,1-.385,1.225,1.225,0,0,1,1,.385,1.312,1.312,0,0,1,.339.939,1.276,1.276,0,0,1-.339.924,1.54,1.54,0,0,1-2,0A1.453,1.453,0,0,1,367.993,55.224Zm2.463,16.827h-2.279V58.75h2.279Z" transform="translate(-311.321 -45.602)"/><path class="a" d="M401.471,84.028l.062,1.478a4.887,4.887,0,0,1,3.941-1.724,3.8,3.8,0,0,1,3.8,2.14,4.94,4.94,0,0,1,4.234-2.14c2.925,0,4.4,1.54,4.449,4.634V97.33h-2.279V88.555a3.093,3.093,0,0,0-.647-2.14,2.849,2.849,0,0,0-2.186-.708,2.98,2.98,0,0,0-2.094.754,3.106,3.106,0,0,0-.97,2.032v8.822h-2.294V88.586c0-1.94-.939-2.894-2.848-2.894a3.042,3.042,0,0,0-3.064,1.909v9.715H399.3V84.028Z" transform="translate(-337.81 -70.881)"/><path class="a" d="M541.742,67.364a2.338,2.338,0,0,0-.831-1.832,7.86,7.86,0,0,0-2.925-1.278,12.426,12.426,0,0,1-4.619-2.078,4.193,4.193,0,0,1-1.617-3.4,4.369,4.369,0,0,1,1.786-3.572,7.212,7.212,0,0,1,4.619-1.4,6.871,6.871,0,0,1,4.742,1.586,4.717,4.717,0,0,1,1.724,3.818l-.031.077h-2.864a2.852,2.852,0,0,0-.939-2.232,3.8,3.8,0,0,0-2.663-.862,3.868,3.868,0,0,0-2.51.708,2.276,2.276,0,0,0-.878,1.847,2.021,2.021,0,0,0,.954,1.694,10.664,10.664,0,0,0,3.156,1.278,10.43,10.43,0,0,1,4.388,2.14,4.512,4.512,0,0,1,1.509,3.479,4.241,4.241,0,0,1-1.786,3.556,7.718,7.718,0,0,1-4.7,1.324,8.326,8.326,0,0,1-4.927-1.493,4.563,4.563,0,0,1-2.048-4.08l.031-.077h2.848a2.841,2.841,0,0,0,1.124,2.448,4.922,4.922,0,0,0,2.94.8,4.344,4.344,0,0,0,2.586-.662A2.068,2.068,0,0,0,541.742,67.364Z" transform="translate(-449.475 -45.517)"/><path class="a" d="M633.36,97.433a8.517,8.517,0,0,1-.262-.985,6.808,6.808,0,0,1-.139-.955,5.245,5.245,0,0,1-1.617,1.57,4.137,4.137,0,0,1-2.248.631,4.427,4.427,0,0,1-3.187-1.062,3.888,3.888,0,0,1-1.109-2.941,3.446,3.446,0,0,1,1.524-3,7.321,7.321,0,0,1,4.3-1.078h2.325v-1.17a2.124,2.124,0,0,0-.616-1.632,2.912,2.912,0,0,0-3.372-.092,1.56,1.56,0,0,0-.6,1.262h-2.91l-.015-.077a3.286,3.286,0,0,1,1.4-2.787,5.954,5.954,0,0,1,3.9-1.216,5.718,5.718,0,0,1,3.757,1.185,4.128,4.128,0,0,1,1.432,3.387v5.912a10.989,10.989,0,0,0,.108,1.586,9.4,9.4,0,0,0,.354,1.478Zm-3.664-2.14a3.625,3.625,0,0,0,2.032-.57,2.808,2.808,0,0,0,1.2-1.293V91.459h-2.371a3.023,3.023,0,0,0-2.048.647,1.949,1.949,0,0,0-.739,1.524,1.559,1.559,0,0,0,.493,1.216,2.125,2.125,0,0,0,1.432.446Z" transform="translate(-528.592 -70.983)"/><path class="a" d="M706,94.206l.215,1.078h.077l.231-1.078,2.648-8.806h3.079l-4.726,13.3h-2.586L700.2,85.4h3.079Z" transform="translate(-592.384 -72.252)"/><path class="a" d="M784.589,97.6a5.817,5.817,0,0,1-4.511-1.847,6.779,6.779,0,0,1-1.678-4.757V90.5a7.081,7.081,0,0,1,1.663-4.819,5.264,5.264,0,0,1,4.172-1.894,5.172,5.172,0,0,1,4.126,1.632,6.393,6.393,0,0,1,1.432,4.372v1.755h-8.3l-.031.062a4.112,4.112,0,0,0,.924,2.586,2.959,2.959,0,0,0,2.371,1,6.014,6.014,0,0,0,3.741-1.139l.954,1.955a6.194,6.194,0,0,1-1.986,1.124A8.356,8.356,0,0,1,784.589,97.6Zm-.354-11.408a2.217,2.217,0,0,0-1.817.878,4.516,4.516,0,0,0-.893,2.232l.031.062h5.281v-.308a3.15,3.15,0,0,0-.647-2.063A2.342,2.342,0,0,0,784.235,86.19Z" transform="translate(-658.545 -70.887)"/><path class="a" d="M9.869,12.886a.675.675,0,0,0,.739-.523c1.047-2.817,2.109-5.635,3.156-8.468a1.277,1.277,0,0,1,1.17-.985c.631-.031,1.047.277,1.309,1.032l3.279,9.191c.662,1.847,1.324,3.695,2.017,5.635.169-.231.293-.4.416-.57,1.032-1.54,2.063-3.095,3.095-4.649a1.365,1.365,0,0,1,1.2-.693H38.073V3.233A3.233,3.233,0,0,0,34.84,0H3.233A3.243,3.243,0,0,0,0,3.233v9.638C2.817,12.855,8.237,12.855,9.869,12.886Z" transform="translate(0.015)"/><path class="a" d="M27.381,58.3a.959.959,0,0,0-.939.493c-1.355,2.063-2.74,4.111-4.1,6.174a1.394,1.394,0,0,1-1.37.816c-.662-.077-.939-.539-1.139-1.108q-2.356-6.651-4.757-13.3c-.046-.154-.123-.293-.231-.57l-2.371,6.312c-.385,1.047-.631,1.216-1.74,1.216H-.1v8.16h0a3.233,3.233,0,0,0,3.233,3.233h4.88v5a1.62,1.62,0,0,0,1.632,1.617,1.57,1.57,0,0,0,1.139-.477l6.127-6.127H34.74A3.233,3.233,0,0,0,37.973,66.5v-8.16C35.372,58.328,29.183,58.328,27.381,58.3Z" transform="translate(0.1 -42.979)"/></g></svg>