<svg xmlns="http://www.w3.org/2000/svg" width="155.403" height="39.502" viewBox="0 0 155.403 39.502"><defs><style>.a{fill:#333;}.b{fill:#b81e27;}</style></defs><g transform="translate(0)"><path class="a" d="M281.762,66.028a13.16,13.16,0,0,1-5.232-2.534,4.906,4.906,0,0,1-1.641-3.719,5.126,5.126,0,0,1,2.005-4.138A7.918,7.918,0,0,1,282.09,54a9,9,0,0,1,3.9.839,6.291,6.291,0,0,1,2.643,2.333,5.848,5.848,0,0,1,.93,3.245h-2.807a3.851,3.851,0,0,0-1.221-3.026,5.01,5.01,0,0,0-3.445-1.094,5.109,5.109,0,0,0-3.227.911,3.068,3.068,0,0,0-1.167,2.534,2.694,2.694,0,0,0,1.094,2.187,11.227,11.227,0,0,0,3.737,1.641,17.062,17.062,0,0,1,4.138,1.641,6.232,6.232,0,0,1,2.206,2.1,5.428,5.428,0,0,1,.729,2.807,4.947,4.947,0,0,1-2.005,4.12,8.532,8.532,0,0,1-5.378,1.549,9.872,9.872,0,0,1-4.083-.839,6.8,6.8,0,0,1-2.917-2.3,5.61,5.61,0,0,1-1.021-3.3H277a3.62,3.62,0,0,0,1.422,3.026,5.94,5.94,0,0,0,3.792,1.112,5.485,5.485,0,0,0,3.391-.893,2.965,2.965,0,0,0,1.185-2.461,2.866,2.866,0,0,0-1.094-2.406A11.693,11.693,0,0,0,281.762,66.028Z" transform="translate(-224.195 -44.153)"/><path class="a" d="M367.993,55.468a1.583,1.583,0,0,1,.4-1.112,1.536,1.536,0,0,1,1.185-.456,1.45,1.45,0,0,1,1.185.456,1.554,1.554,0,0,1,.4,1.112,1.511,1.511,0,0,1-.4,1.094,1.823,1.823,0,0,1-2.37,0A1.72,1.72,0,0,1,367.993,55.468Zm2.917,19.924h-2.7V59.642h2.7Z" transform="translate(-300.892 -44.075)"/><path class="a" d="M401.87,84.074l.073,1.75a5.786,5.786,0,0,1,4.667-2.042c2.206,0,3.7.839,4.5,2.534a5.849,5.849,0,0,1,5.013-2.534c3.464,0,5.214,1.823,5.268,5.487V99.824h-2.7V89.434a3.663,3.663,0,0,0-.766-2.534,3.373,3.373,0,0,0-2.589-.839,3.528,3.528,0,0,0-2.479.893,3.677,3.677,0,0,0-1.148,2.406V99.806H409V89.47c0-2.3-1.112-3.427-3.372-3.427A3.6,3.6,0,0,0,402,88.3v11.5h-2.7V84.074Z" transform="translate(-326.493 -68.507)"/><path class="a" d="M543.666,69.86a2.769,2.769,0,0,0-.984-2.169,9.307,9.307,0,0,0-3.464-1.513,14.714,14.714,0,0,1-5.469-2.461,4.965,4.965,0,0,1-1.914-4.029,5.173,5.173,0,0,1,2.115-4.229,8.54,8.54,0,0,1,5.469-1.659,8.136,8.136,0,0,1,5.615,1.878,5.585,5.585,0,0,1,2.042,4.521l-.036.091h-3.391a3.377,3.377,0,0,0-1.112-2.643,4.494,4.494,0,0,0-3.154-1.021,4.58,4.58,0,0,0-2.971.839,2.694,2.694,0,0,0-1.039,2.187,2.393,2.393,0,0,0,1.13,2.005,12.625,12.625,0,0,0,3.737,1.513,12.349,12.349,0,0,1,5.2,2.534,5.342,5.342,0,0,1,1.786,4.12,5.022,5.022,0,0,1-2.115,4.211,9.138,9.138,0,0,1-5.56,1.568,9.858,9.858,0,0,1-5.833-1.768A5.4,5.4,0,0,1,531.288,69l.036-.091H534.7a3.364,3.364,0,0,0,1.331,2.9,5.828,5.828,0,0,0,3.482.948,5.144,5.144,0,0,0,3.063-.784A2.449,2.449,0,0,0,543.666,69.86Z" transform="translate(-434.419 -43.993)"/><path class="a" d="M634.935,99.923a10.087,10.087,0,0,1-.31-1.167,8.061,8.061,0,0,1-.164-1.13,6.21,6.21,0,0,1-1.914,1.859,4.9,4.9,0,0,1-2.661.747,5.241,5.241,0,0,1-3.773-1.258,4.6,4.6,0,0,1-1.313-3.482,4.081,4.081,0,0,1,1.8-3.555,8.669,8.669,0,0,1,5.086-1.276h2.753V89.278a2.515,2.515,0,0,0-.729-1.932,3.448,3.448,0,0,0-3.992-.109,1.848,1.848,0,0,0-.711,1.495h-3.445l-.018-.091a3.891,3.891,0,0,1,1.659-3.3,7.05,7.05,0,0,1,4.612-1.44,6.77,6.77,0,0,1,4.448,1.4,4.888,4.888,0,0,1,1.7,4.01v7a12.993,12.993,0,0,0,.128,1.878,11.119,11.119,0,0,0,.419,1.75ZM630.6,97.39A4.292,4.292,0,0,0,633,96.715a3.325,3.325,0,0,0,1.422-1.531V92.85h-2.807a3.58,3.58,0,0,0-2.424.766,2.308,2.308,0,0,0-.875,1.8,1.846,1.846,0,0,0,.583,1.44,2.516,2.516,0,0,0,1.7.529Z" transform="translate(-510.887 -68.606)"/><path class="a" d="M707.072,95.827l.255,1.276h.091l.273-1.276L710.828,85.4h3.646l-5.6,15.75h-3.063L700.2,85.4h3.646Z" transform="translate(-572.542 -69.832)"/><path class="a" d="M785.728,100.14a6.887,6.887,0,0,1-5.341-2.187A8.027,8.027,0,0,1,778.4,92.32v-.583a8.385,8.385,0,0,1,1.969-5.706,6.233,6.233,0,0,1,4.94-2.242,6.124,6.124,0,0,1,4.885,1.932,7.57,7.57,0,0,1,1.7,5.177v2.078h-9.826l-.036.073a4.869,4.869,0,0,0,1.094,3.062,3.5,3.5,0,0,0,2.807,1.185,7.12,7.12,0,0,0,4.43-1.349l1.13,2.315a7.337,7.337,0,0,1-2.352,1.331A9.9,9.9,0,0,1,785.728,100.14Zm-.419-13.508a2.625,2.625,0,0,0-2.151,1.039,5.347,5.347,0,0,0-1.057,2.643l.036.073h6.253v-.365a3.731,3.731,0,0,0-.766-2.443A2.773,2.773,0,0,0,785.309,86.632Z" transform="translate(-636.487 -68.513)"/><path class="b" d="M11.685,15.258a.8.8,0,0,0,.875-.62C13.8,11.3,15.057,7.966,16.3,4.612a1.513,1.513,0,0,1,1.385-1.167c.747-.036,1.24.328,1.549,1.221l3.883,10.883c.784,2.187,1.568,4.375,2.388,6.672.2-.273.346-.474.492-.674,1.221-1.823,2.443-3.664,3.664-5.505a1.616,1.616,0,0,1,1.422-.82h14V3.828A3.828,3.828,0,0,0,41.252,0H3.828A3.839,3.839,0,0,0,0,3.828V15.239C3.336,15.221,9.753,15.221,11.685,15.258Z" transform="translate(0.018)"/><path class="b" d="M32.439,59.678a1.135,1.135,0,0,0-1.112.583c-1.6,2.443-3.245,4.867-4.849,7.31a1.651,1.651,0,0,1-1.622.966c-.784-.091-1.112-.638-1.349-1.312q-2.789-7.875-5.633-15.75c-.055-.182-.146-.346-.273-.674l-2.807,7.474c-.456,1.24-.747,1.44-2.06,1.44H-.1v9.661h0A3.828,3.828,0,0,0,3.728,73.2H9.507v5.924a1.918,1.918,0,0,0,1.932,1.914,1.859,1.859,0,0,0,1.349-.565l7.255-7.255H41.152a3.828,3.828,0,0,0,3.828-3.828V59.732C41.9,59.714,34.572,59.714,32.439,59.678Z" transform="translate(0.1 -41.54)"/></g></svg>